<?xml version="1.0" encoding="UTF-8" standalone="no"?>
<svg width="690px" height="120px" viewBox="0 0 690 120" version="1.1" xmlns="http://www.w3.org/2000/svg" xmlns:xlink="http://www.w3.org/1999/xlink">
    <!-- Generator: Sketch 3.8.2 (29753) - http://www.bohemiancoding.com/sketch -->
    <title>prep-tmp</title>
    <desc>Created with Sketch.</desc>
    <defs>
        <linearGradient x1="0.0417110146%" y1="50.0498657%" x2="100.140091%" y2="50.0498657%" id="linearGradient-1">
            <stop stop-color="#6FCBD2" offset="0.132813%"></stop>
            <stop stop-color="#077E9B" offset="100%"></stop>
        </linearGradient>
        <linearGradient x1="0.00990589187%" y1="49.88802%" x2="99.9859772%" y2="49.88802%" id="linearGradient-2">
            <stop stop-color="#6FCBD2" offset="0.132813%"></stop>
            <stop stop-color="#077E9B" offset="100%"></stop>
        </linearGradient>
        <linearGradient x1="0.0413654301%" y1="49.9744192%" x2="100.000123%" y2="49.9744192%" id="linearGradient-3">
            <stop stop-color="#6FCBD2" offset="0.132813%"></stop>
            <stop stop-color="#077E9B" offset="100%"></stop>
        </linearGradient>
        <linearGradient x1="0.0722848791%" y1="50.0676224%" x2="100.02499%" y2="50.0676224%" id="linearGradient-4">
            <stop stop-color="#6FCBD2" offset="0.132813%"></stop>
            <stop stop-color="#077E9B" offset="100%"></stop>
        </linearGradient>
        <linearGradient x1="-0.0713676668%" y1="50.022443%" x2="100.045881%" y2="50.022443%" id="linearGradient-5">
            <stop stop-color="#6FCBD2" offset="0.132813%"></stop>
            <stop stop-color="#077E9B" offset="100%"></stop>
        </linearGradient>
        <linearGradient x1="0.00720385072%" y1="50.114522%" x2="99.9705833%" y2="50.114522%" id="linearGradient-6">
            <stop stop-color="#6FCBD2" offset="0.132813%"></stop>
            <stop stop-color="#077E9B" offset="100%"></stop>
        </linearGradient>
        <linearGradient x1="0.00844596508%" y1="49.8968874%" x2="100.031317%" y2="49.8968874%" id="linearGradient-7">
            <stop stop-color="#6FCBD2" offset="0.132813%"></stop>
            <stop stop-color="#077E9B" offset="100%"></stop>
        </linearGradient>
        <linearGradient x1="-0.0138684041%" y1="50.1597522%" x2="99.9425001%" y2="50.1597522%" id="linearGradient-8">
            <stop stop-color="#6FCBD2" offset="0.132813%"></stop>
            <stop stop-color="#077E9B" offset="100%"></stop>
        </linearGradient>
        <linearGradient x1="-0.0492414588%" y1="49.9788348%" x2="99.9103171%" y2="49.9788348%" id="linearGradient-9">
            <stop stop-color="#6FCBD2" offset="0.132813%"></stop>
            <stop stop-color="#077E9B" offset="100%"></stop>
        </linearGradient>
        <linearGradient x1="-0.049295805%" y1="50.0620417%" x2="99.9041374%" y2="50.0620417%" id="linearGradient-10">
            <stop stop-color="#6FCBD2" offset="0.132813%"></stop>
            <stop stop-color="#077E9B" offset="100%"></stop>
        </linearGradient>
        <linearGradient x1="0.0213282003%" y1="49.9341847%" x2="100.043287%" y2="49.9341847%" id="linearGradient-11">
            <stop stop-color="#6FCBD2" offset="0.132813%"></stop>
            <stop stop-color="#077E9B" offset="100%"></stop>
        </linearGradient>
        <linearGradient x1="0.0213862096%" y1="50.1147109%" x2="100.045953%" y2="50.1147109%" id="linearGradient-12">
            <stop stop-color="#6FCBD2" offset="0.132813%"></stop>
            <stop stop-color="#077E9B" offset="100%"></stop>
        </linearGradient>
        <linearGradient x1="0.0212137402%" y1="49.9283731%" x2="100.045781%" y2="49.9283731%" id="linearGradient-13">
            <stop stop-color="#6FCBD2" offset="0.132813%"></stop>
            <stop stop-color="#077E9B" offset="100%"></stop>
        </linearGradient>
    </defs>
    <g id="Page-1" stroke="none" stroke-width="1" fill="none" fill-rule="evenodd">
        <g id="prep-tmp">
            <g id="Group">
                <g>
                    <g opacity="0.8" transform="translate(3.000000, 14.000000)" id="Shape">
                        <g opacity="0.6" transform="translate(0.000000, 29.000000)" fill="url(#linearGradient-1)">
                            <path d="M1.5,52.4 C1.1,52.4 0.8,52.3 0.5,52 C1.42108547e-14,51.5 1.42108547e-14,50.6 0.5,50.1 C1.7,48.9 30.3,21.1 44.1,19.9 C50.9,19.3 59.6,24.6 68,29.8 C74.8,34 81.9,38.4 87.1,38.8 C98,39.8 119.9,32.7 129.3,28.6 C141,23.5 171.5,0.7 171.8,0.5 C172.4,0.1 173.2,0.2 173.7,0.8 C174.1,1.4 174,2.2 173.4,2.7 C172.1,3.6 142.3,26 130.3,31.2 C121.7,34.9 98.9,42.6 86.8,41.6 C81,41.1 73.9,36.7 66.5,32.2 C58.5,27.3 50.2,22.1 44.2,22.7 C31.3,23.9 2.5,51.9 2.2,52.2 C2.2,52.3 1.9,52.4 1.5,52.4 L1.5,52.4 Z"></path>
                        </g>
                        <g transform="translate(0.000000, 17.000000)" fill="url(#linearGradient-2)">
                            <path d="M94,65.1 C91.3,65.1 88.9,64.9 86.9,64.4 C79.7,62.6 73,54.7 66,46.3 C58.8,37.8 51.4,29 44.3,28.4 L43.5,28.4 C31.1,28.4 2.7,52 2.4,52.2 C1.8,52.7 1,52.6 0.5,52 C9.27036226e-15,51.4 0.1,50.6 0.7,50.1 C1.9,49.1 31.5,24.6 44.5,25.7 C52.8,26.4 60.5,35.6 68,44.6 C74.5,52.3 81.1,60.2 87.5,61.8 C97.3,64.2 120.1,59.2 129.3,53.9 C144.3,45.2 171.4,1.5 171.7,1.1 C172.1,0.5 172.9,0.3 173.6,0.7 C174.2,1.1 174.4,1.9 174,2.6 C172.9,4.4 146.3,47.3 130.7,56.4 C123.4,60.4 106.1,65.1 94,65.1 L94,65.1 Z"></path>
                        </g>
                        <g opacity="0.7" transform="translate(0.000000, 17.000000)" fill="url(#linearGradient-3)">
                            <path d="M101.8,53.9 C95.9,53.9 90.5,53.4 86.8,52.5 C80.6,50.9 74,44.8 67.1,38.4 C59.3,31.2 51.2,23.7 44.3,23.7 C31.6,23.7 2.7,51.8 2.4,52.1 C1.9,52.6 1,52.6 0.5,52.1 C2.84217094e-14,51.6 2.84217094e-14,50.7 0.5,50.2 C1.7,49 30.4,21 44.3,21 C52.2,21 60.7,28.8 68.9,36.4 C75.3,42.3 81.9,48.4 87.5,49.8 C97.1,52.3 120,51.3 129.4,46.9 C143.9,40.2 171.4,1.3 171.7,0.9 C172.1,0.3 173,0.1 173.6,0.6 C174.2,1 174.4,1.9 173.9,2.5 C172.8,4.1 145.7,42.4 130.5,49.4 C124.1,52.4 112.2,53.9 101.8,53.9 L101.8,53.9 Z"></path>
                        </g>
                        <g transform="translate(0.000000, 17.000000)" fill="url(#linearGradient-4)">
                            <path d="M89.3,74.2 C88.5,74.2 87.7,74.1 86.9,74 C78.1,72.6 71.3,61.4 64.7,50.5 C58.4,40.1 51.8,29.3 44.1,28.3 C34.3,26.9 10.6,45 2.3,52.1 C1.7,52.6 0.9,52.5 0.4,51.9 C-0.1,51.3 -5.82867088e-15,50.5 0.5,50 C1.8,48.9 31.4,23.8 44.4,25.6 C53.4,26.8 60.2,38.2 66.9,49.1 C73.2,59.4 79.7,70.1 87.3,71.3 C99,73.2 120.9,56.3 129.1,50 C142.1,40 171.4,1.2 171.7,0.8 C172.1,0.2 173,0.1 173.6,0.5 C174.2,0.9 174.3,1.8 173.9,2.4 C172.7,4 144.1,41.9 130.8,52.1 C117.4,62.6 100.8,74.2 89.3,74.2 L89.3,74.2 Z"></path>
                        </g>
                        <g fill="url(#linearGradient-5)">
                            <path d="M89.3,101 C88.5,101 87.7,100.9 86.9,100.7 C78,98.7 71.5,84.1 64.7,68.6 C58.3,54.3 51.8,39.4 44.2,38 C34.6,36.1 10.9,60.9 2.7,70.6 C2.2,71.2 1.4,71.2 0.8,70.8 C0.2,70.3 0.2,69.5 0.6,68.9 C0.7,68.8 8.3,59.9 17.4,51.3 C29.9,39.6 39.1,34.2 44.7,35.3 C53.7,37 60.3,51.8 67.2,67.5 C73.5,81.7 80,96.4 87.5,98.1 C99.1,100.7 120.8,77.5 129,68.9 C142,55.1 171.3,1.9 171.6,1.3 C172,0.6 172.8,0.4 173.4,0.8 C174.1,1.2 174.3,2 173.9,2.6 C172.7,4.8 144.1,56.7 130.9,70.7 C117.5,85 100.9,101 89.3,101 L89.3,101 Z"></path>
                        </g>
                        <g transform="translate(0.000000, 49.000000)" fill="url(#linearGradient-6)">
                            <path d="M1.5,31.5 C1,31.5 0.5,31.2 0.3,30.7 C-1.2490009e-15,30 0.3,29.2 1,28.9 C2.3,28.3 32.8,14.7 44,11.5 C47,10.6 74,3 87.3,3.7 C92.8,4 100.1,6.9 107.8,10 C115.9,13.3 124.4,16.6 130,16.5 C141.2,16.1 171.9,0.4 172.3,0.2 C173,-0.1 173.8,0.1 174.1,0.8 C174.4,1.5 174.2,2.3 173.5,2.6 C172.2,3.3 141.9,18.7 130.1,19.1 C123.9,19.4 115.1,15.8 106.7,12.4 C99.6,9.5 92.2,6.5 87.1,6.3 C76.7,5.7 55.6,10.9 44.7,14 C33.7,17.2 2.4,31.1 2.1,31.2 C1.9,31.5 1.7,31.5 1.5,31.5 L1.5,31.5 Z"></path>
                        </g>
                        <g transform="translate(0.000000, 42.000000)" fill="url(#linearGradient-7)">
                            <path d="M95.6,39.1 C92.4,39.1 89.4,38.9 87,38.5 C81.1,37.5 73.9,33 66.4,28.2 C58.5,23.2 50.4,18 44.3,17.6 C33.4,16.9 2.5,31.3 2.1,31.5 C1.4,31.8 0.6,31.5 0.3,30.9 C3.00315328e-14,30.2 0.3,29.4 0.9,29.1 C2.2,28.5 32.8,14.2 44.4,15 C51.2,15.5 59.6,20.8 67.8,26 C74.8,30.4 82,35 87.4,35.9 C98,37.7 120.1,34.8 129.5,31.3 C141.8,26.6 171.6,0.9 171.9,0.6 C172.5,0.1 173.3,0.2 173.8,0.7 C174.3,1.3 174.2,2.1 173.7,2.6 C172.5,3.7 143.3,28.9 130.5,33.7 C122.8,36.6 107.4,39.1 95.6,39.1 L95.6,39.1 Z"></path>
                        </g>
                        <g opacity="0.6" transform="translate(0.000000, 42.000000)" fill="url(#linearGradient-8)">
                            <path d="M103.4,32.6 C97.1,32.6 91.2,32.2 87,31.5 C81.6,30.6 74.9,27.2 67.7,23.5 C59.3,19.2 50.6,14.8 44.4,14.8 C33.2,14.8 2.5,31.2 2.2,31.3 C1.5,31.6 0.7,31.4 0.4,30.7 C-1.77358128e-14,30 0.3,29.2 1,28.9 C2.3,28.2 32.6,12.1 44.5,12.1 C51.3,12.1 60.3,16.7 69,21.1 C76,24.6 82.6,28 87.5,28.8 C98,30.5 120,30.1 129.7,27.1 C141.7,23.4 171.8,0.6 172.1,0.4 C172.7,-0.1 173.5,0.1 174,0.7 C174.5,1.3 174.3,2.1 173.7,2.6 C172.5,3.6 143,25.9 130.5,29.8 C124.1,31.7 113.3,32.6 103.4,32.6 L103.4,32.6 Z"></path>
                        </g>
                        <g opacity="0.4" transform="translate(0.000000, 42.000000)" fill="url(#linearGradient-9)">
                            <path d="M89.7,44.2 C88.8,44.2 87.9,44.1 87.1,44 C80.3,43.1 72.6,36.7 65.1,30.5 C57.9,24.5 50.4,18.2 44.3,17.5 C33.5,16.3 2.5,31.2 2.2,31.4 C1.5,31.7 0.7,31.4 0.4,30.8 C0.1,30.1 0.4,29.3 1,29 C2.3,28.4 33,13.6 44.6,14.9 C51.5,15.7 59.3,22.2 66.9,28.5 C74,34.5 81.4,40.6 87.5,41.4 C97.9,42.8 118.3,34.2 129.6,29 C141.2,23.6 171.9,0.7 172.2,0.5 C172.8,0.1 173.6,0.2 174.1,0.8 C174.5,1.4 174.4,2.2 173.8,2.7 C172.5,3.6 142.6,26 130.7,31.5 C119.9,36.4 101.2,44.2 89.7,44.2 L89.7,44.2 Z"></path>
                        </g>
                        <g opacity="0.6" transform="translate(0.000000, 39.000000)" fill="url(#linearGradient-10)">
                            <path d="M87.6,38.5 L87.2,38.5 C80,38.3 72,31.5 64.3,24.9 C57.3,19 50.2,12.9 44.3,12.2 C33.5,11 2.5,25.5 2.2,25.6 C1.5,25.9 0.7,25.6 0.4,25 C0.1,24.3 0.4,23.5 1,23.2 C2.3,22.6 33,8.1 44.6,9.5 C51.3,10.3 58.4,16.4 66,22.8 C73.4,29.1 81,35.6 87.3,35.8 L87.7,35.8 C95,35.8 105.3,28.9 114.3,22.8 C120,19 125.3,15.4 129.6,13.6 C139.8,9.5 171.2,1.1 172.6,0.7 C173.3,0.5 174.1,0.9 174.3,1.7 C174.5,2.4 174.1,3.2 173.3,3.4 C173,3.5 140.7,12.1 130.6,16.2 C126.5,17.8 121.3,21.4 115.8,25.1 C106.4,31.4 95.8,38.5 87.6,38.5 L87.6,38.5 Z"></path>
                        </g>
                        <g opacity="0.4" transform="translate(0.000000, 34.000000)" fill="url(#linearGradient-11)">
                            <path d="M1.5,54 C1.2,54 0.9,53.9 0.7,53.7 C0.1,53.3 -7.21644966e-15,52.4 0.4,51.8 C1.5,50.3 28.5,14.5 44.1,11.7 C51.1,10.5 60.6,15.5 69.7,20.5 C76.3,24.1 82.6,27.5 87.3,28.1 C97.4,29.5 119.2,27.6 129.5,24.5 C141.2,20.9 171.7,0.7 172,0.5 C172.6,0.1 173.5,0.3 173.9,0.9 C174.3,1.5 174.1,2.4 173.5,2.8 C172.2,3.6 142.4,23.5 130.3,27.2 C119.6,30.5 97.3,32.4 86.9,30.9 C81.7,30.2 75.2,26.7 68.4,23 C59.7,18.3 50.6,13.4 44.5,14.5 C30,17.1 2.8,53.2 2.5,53.5 C2.4,53.8 2,54 1.5,54 L1.5,54 Z"></path>
                        </g>
                        <g transform="translate(0.000000, 34.000000)" fill="url(#linearGradient-12)">
                            <path d="M1.5,54 C1.2,54 1,53.9 0.7,53.7 C0.1,53.3 -7.21644966e-15,52.4 0.4,51.8 C1.5,50.2 28.3,13.2 44,9.6 C51,8 60.9,12.4 70.6,16.6 C76.9,19.4 82.9,22 87.3,22.6 C98.1,24 119.8,23.7 129.6,21.3 C141.1,18.5 171.8,0.5 172.1,0.3 C172.7,-0.1 173.6,0.1 173.9,0.8 C174.3,1.4 174.1,2.3 173.4,2.6 C172.1,3.3 142.1,20.9 130.2,23.8 C119.8,26.4 98,26.6 86.9,25.2 C82.2,24.6 76,21.9 69.5,19 C60.7,15.1 50.7,10.7 44.6,12.1 C29.8,15.4 2.8,52.9 2.6,53.2 C2.4,53.8 2,54 1.5,54 L1.5,54 Z"></path>
                        </g>
                        <g transform="translate(0.000000, 34.000000)" fill="url(#linearGradient-13)">
                            <path d="M1.5,54 C1.2,54 0.9,53.9 0.7,53.7 C0.1,53.3 -7.21644966e-15,52.4 0.4,51.8 C1.5,50.3 28.4,13.8 44.1,11.7 C51.2,10.7 60,16.7 68.5,22.6 C75.2,27.2 82.1,31.9 87.3,32.5 C98.3,33.7 120.5,26.1 129.5,22.8 C140.7,18.7 171.8,0.6 172.1,0.5 C172.7,0.1 173.6,0.3 173.9,1 C174.3,1.6 174.1,2.5 173.4,2.8 C172.1,3.5 141.8,21.1 130.4,25.3 C121.2,28.7 98.5,36.5 87,35.2 C81.1,34.6 74.3,29.8 67,24.9 C58.9,19.4 50.6,13.7 44.5,14.5 C29.9,16.5 2.9,53.1 2.6,53.5 C2.4,53.8 2,54 1.5,54 L1.5,54 Z"></path>
                        </g>
                    </g>
                    <rect id="Rectangle-path" fill="#FFFFFF" x="0.1" y="2.84217094e-14" width="6.3" height="119.7"></rect>
                    <rect id="Rectangle-path" fill="#FFFFFF" x="174.2" y="2.84217094e-14" width="6.3" height="119.7"></rect>
                </g>
                <path d="M235.5,55.7 L235.5,70.1 L229.3,70.1 L229.3,34 L240,34 C244.9,34 248.6,34.9 250.9,36.6 C253.3,38.3 254.4,41 254.4,44.5 C254.4,49 251.9,52.2 247,54.1 L257.8,70.1 L250.7,70.1 L241.6,55.7 L235.5,55.7 L235.5,55.7 Z M235.5,50.8 L239.8,50.8 C242.7,50.8 244.8,50.3 246.1,49.3 C247.4,48.3 248.1,46.8 248.1,44.8 C248.1,42.8 247.4,41.3 246,40.4 C244.6,39.5 242.5,39.1 239.6,39.1 L235.5,39.1 L235.5,50.8 L235.5,50.8 Z" id="Shape" fill="#FFFFFF"></path>
                <polygon id="Shape" fill="#FFFFFF" points="287.8 70.1 266.2 70.1 266.2 34 287.8 34 287.8 39 272.5 39 272.5 48.8 286.9 48.8 286.9 53.7 272.5 53.7 272.5 65 287.8 65"></polygon>
                <path d="M320.7,60.3 C320.7,63.5 319.5,66 317,67.8 C314.5,69.6 311.2,70.5 306.9,70.5 C302.6,70.5 299.1,69.9 296.3,68.6 L296.3,63 C298,63.8 299.9,64.4 301.8,64.8 C303.8,65.2 305.6,65.5 307.3,65.5 C309.8,65.5 311.6,65.1 312.8,64.2 C314,63.3 314.6,62.1 314.6,60.6 C314.6,59.3 314.1,58.1 313,57.2 C311.9,56.3 309.7,55.2 306.3,53.9 C302.8,52.6 300.4,51 298.9,49.3 C297.4,47.6 296.8,45.5 296.8,43.1 C296.8,40.1 297.9,37.7 300.2,36 C302.5,34.3 305.5,33.4 309.3,33.4 C313,33.4 316.6,34.2 320.2,35.7 L318.2,40.5 C314.8,39.2 311.8,38.5 309.1,38.5 C307.1,38.5 305.6,38.9 304.5,39.7 C303.5,40.5 302.9,41.6 302.9,43 C302.9,43.9 303.1,44.7 303.5,45.4 C303.9,46.1 304.6,46.7 305.6,47.3 C306.6,47.9 308.3,48.7 310.8,49.6 C313.6,50.7 315.7,51.7 317,52.7 C318.3,53.7 319.3,54.7 319.9,55.9 C320.5,57.1 320.7,58.6 320.7,60.3 L320.7,60.3 Z" id="Shape" fill="#FFFFFF"></path>
                <polygon id="Shape" fill="#FFFFFF" points="330.5 70.1 330.5 34 336.7 34 336.7 70.1"></polygon>
                <polygon id="Shape" fill="#FFFFFF" points="348.9 70.1 348.9 34 355.1 34 355.1 65 371.2 65 371.2 70.1"></polygon>
                <polygon id="Shape" fill="#FFFFFF" points="380.1 70.1 380.1 34 386.3 34 386.3 70.1"></polygon>
                <polygon id="Shape" fill="#FFFFFF" points="398.5 70.1 398.5 42.4384863 398.5 34 420.1 34 420.1 39 404.8 39 404.8 48.8 419.2 48.8 419.2 53.7 404.8 53.7 404.8 65 420.1 65 420.1 70.1"></polygon>
                <path d="M462.2,70.1 L454.6,70.1 L435.8,41.4 L435.6,41.4 L435.7,43 C435.9,46.1 436.1,48.9 436.1,51.4 L436.1,70.1 L430.4,70.1 L430.4,34 L438,34 L456.7,62.6 L456.9,62.6 C456.9,62.2 456.8,60.8 456.7,58.5 C456.6,56.1 456.5,54.3 456.5,52.9 L456.5,34 L462.2,34 L462.2,70.1 L462.2,70.1 Z" id="Shape" fill="#FFFFFF"></path>
                <path d="M490.8,38.6 C487.2,38.6 484.4,39.8 482.3,42.2 C480.2,44.6 479.2,47.9 479.2,52.1 C479.2,56.5 480.2,59.9 482.2,62.1 C484.2,64.4 487,65.5 490.8,65.5 C492.4,65.5 494,65.3 495.5,65 C497,64.7 498.6,64.3 500.2,63.8 L500.2,68.9 C497.2,70 493.8,70.5 490,70.5 C484.4,70.5 480.1,68.9 477.1,65.7 C474.1,62.5 472.6,57.9 472.6,52 C472.6,48.3 473.3,45 474.8,42.2 C476.3,39.4 478.4,37.2 481.1,35.7 C483.8,34.2 487.1,33.5 490.8,33.5 C494.7,33.5 498.3,34.3 501.6,35.8 L499.4,40.7 C498.1,40.1 496.8,39.6 495.3,39.2 C493.8,38.8 492.4,38.6 490.8,38.6 L490.8,38.6 Z" id="Shape" fill="#FFFFFF"></path>
                <polygon id="Shape" fill="#FFFFFF" points="532.2 70.1 510.6 70.1 510.6 34 532.2 34 532.2 39 516.9 39 516.9 48.8 531.3 48.8 531.3 53.7 516.9 53.7 516.9 65 532.2 65"></polygon>
                <path d="M229.3,108.3 C229.3,106.1 229.9,104.3 231,102.7 C232.1,101.1 234.1,99.5 237,97.9 C235.3,96.1 234.2,94.5 233.6,93.3 C233,92 232.7,90.7 232.7,89.4 C232.7,86.9 233.6,84.9 235.5,83.5 C237.4,82.1 239.9,81.3 243.1,81.3 C246.2,81.3 248.6,82 250.4,83.4 C252.2,84.8 253,86.7 253,89.1 C253,91 252.4,92.7 251.2,94.2 C250,95.7 248.1,97.3 245.3,98.8 L254.3,107 C255.7,105.2 256.9,102.7 257.8,99.3 L264.1,99.3 C262.9,104 260.9,107.8 258.3,110.7 L266.2,117.9 L258.3,117.9 L254.4,114.3 C252.6,115.6 250.7,116.7 248.7,117.3 C246.7,118 244.5,118.3 242,118.3 C238,118.3 234.9,117.4 232.6,115.6 C230.4,113.9 229.3,111.4 229.3,108.3 L229.3,108.3 Z M242.4,113.4 C245.6,113.4 248.3,112.5 250.6,110.8 L240.6,101.5 C238.8,102.6 237.5,103.7 236.8,104.6 C236.1,105.6 235.8,106.7 235.8,107.9 C235.8,109.5 236.4,110.8 237.6,111.8 C238.8,112.9 240.4,113.4 242.4,113.4 L242.4,113.4 Z M238.5,89.6 C238.5,90.6 238.8,91.6 239.4,92.5 C240,93.4 240.8,94.4 241.8,95.4 C243.8,94.3 245.1,93.4 245.9,92.5 C246.7,91.6 247.1,90.6 247.1,89.4 C247.1,88.3 246.7,87.5 246,86.8 C245.2,86.2 244.2,85.8 243,85.8 C241.6,85.8 240.5,86.1 239.7,86.8 C238.9,87.5 238.5,88.5 238.5,89.6 L238.5,89.6 Z" id="Shape" fill="#FFFFFF"></path>
                <path d="M299.6,92.7 C299.6,96.5 298.3,99.3 295.7,101.4 C293.1,103.5 289.4,104.4 284.6,104.4 L280.6,104.4 L280.6,117.9 L274.4,117.9 L274.4,81.8 L285.4,81.8 C290.2,81.8 293.7,82.7 296.1,84.6 C298.4,86.4 299.6,89.1 299.6,92.7 L299.6,92.7 Z M280.6,99.4 L283.9,99.4 C287.1,99.4 289.4,98.9 290.9,97.8 C292.4,96.7 293.1,95.1 293.1,92.9 C293.1,90.8 292.4,89.3 291.1,88.3 C289.8,87.3 287.7,86.8 284.8,86.8 L280.5,86.8 L280.5,99.4 L280.6,99.4 Z" id="Shape" fill="#FFFFFF"></path>
                <path d="M315.1,103.5 L315.1,117.9 L308.9,117.9 L308.9,81.8 L319.7,81.8 C324.6,81.8 328.3,82.7 330.6,84.4 C333,86.1 334.1,88.8 334.1,92.3 C334.1,96.8 331.6,100 326.7,101.9 L337.5,117.9 L330.4,117.9 L321.3,103.5 L315.1,103.5 L315.1,103.5 Z M315.1,98.6 L319.4,98.6 C322.3,98.6 324.4,98.1 325.7,97.1 C327,96.1 327.7,94.6 327.7,92.6 C327.7,90.6 327,89.1 325.6,88.2 C324.2,87.3 322.1,86.9 319.2,86.9 L315.1,86.9 L315.1,98.6 L315.1,98.6 Z" id="Shape" fill="#FFFFFF"></path>
                <polygon id="Shape" fill="#FFFFFF" points="367.4 117.9 345.8 117.9 345.8 81.8 367.4 81.8 367.4 86.8 352.1 86.8 352.1 96.6 366.5 96.6 366.5 101.5 352.1 101.5 352.1 112.8 367.4 112.8"></polygon>
                <path d="M403,92.7 C403,96.5 401.7,99.3 399.1,101.4 C396.5,103.5 392.8,104.4 388,104.4 L384,104.4 L384,117.9 L377.8,117.9 L377.8,81.8 L388.8,81.8 C393.6,81.8 397.1,82.7 399.5,84.6 C401.8,86.4 403,89.1 403,92.7 L403,92.7 Z M384,99.4 L387.3,99.4 C390.5,99.4 392.8,98.9 394.3,97.8 C395.8,96.7 396.5,95.1 396.5,92.9 C396.5,90.8 395.8,89.3 394.5,88.3 C393.2,87.3 391.1,86.8 388.2,86.8 L384,86.8 L384,99.4 L384,99.4 Z" id="Shape" fill="#FFFFFF"></path>
                <path d="M434.1,117.9 L430.3,107.9 L415.7,107.9 L412,117.9 L405.4,117.9 L419.7,81.7 L426.5,81.7 L440.8,117.9 L434.1,117.9 L434.1,117.9 Z M428.6,102.8 L425,93 C424.7,92.3 424.4,91.3 423.9,89.9 C423.4,88.5 423.1,87.4 422.9,86.8 C422.4,88.8 421.7,91 420.8,93.4 L417.4,102.8 L428.6,102.8 L428.6,102.8 Z" id="Shape" fill="#FFFFFF"></path>
                <path d="M455.1,103.5 L455.1,117.9 L448.9,117.9 L448.9,81.8 L459.7,81.8 C464.6,81.8 468.3,82.7 470.6,84.4 C473,86.1 474.1,88.8 474.1,92.3 C474.1,96.8 471.6,100 466.7,101.9 L477.5,117.9 L470.4,117.9 L461.3,103.5 L455.1,103.5 L455.1,103.5 Z M455.1,98.6 L459.4,98.6 C462.3,98.6 464.4,98.1 465.7,97.1 C467,96.1 467.7,94.6 467.7,92.6 C467.7,90.6 467,89.1 465.6,88.2 C464.2,87.3 462.1,86.9 459.2,86.9 L455.1,86.9 L455.1,98.6 L455.1,98.6 Z" id="Shape" fill="#FFFFFF"></path>
                <polygon id="Shape" fill="#FFFFFF" points="507.3 117.9 485.7 117.9 485.7 81.8 507.3 81.8 507.3 86.8 492 86.8 492 96.6 506.4 96.6 506.4 101.5 492 101.5 492 112.8 507.3 112.8"></polygon>
                <path d="M548.7,99.5 C548.7,105.5 547,110 543.5,113.1 C540,116.2 535,117.8 528.4,117.8 L517.7,117.8 L517.7,81.7 L529.5,81.7 C535.6,81.7 540.3,83.2 543.7,86.3 C547,89.5 548.7,93.9 548.7,99.5 L548.7,99.5 Z M542.1,99.7 C542.1,91.1 537.8,86.8 529.3,86.8 L523.9,86.8 L523.9,113 L528.3,113 C537.5,112.9 542.1,108.5 542.1,99.7 L542.1,99.7 Z" id="Shape" fill="#FFFFFF"></path>
                <path d="M590.8,117.9 L583.2,117.9 L564.4,89.2 L564.2,89.2 L564.3,90.8 C564.5,93.9 564.7,96.7 564.7,99.2 L564.7,117.9 L559,117.9 L559,81.8 L566.6,81.8 L585.3,110.4 L585.5,110.4 C585.5,110 585.4,108.6 585.3,106.3 C585.2,103.9 585.1,102.1 585.1,100.7 L585.1,81.8 L590.8,81.8 L590.8,117.9 L590.8,117.9 Z" id="Shape" fill="#FFFFFF"></path>
                <polygon id="Shape" fill="#FFFFFF" points="624.6 117.9 603 117.9 603 81.8 624.6 81.8 624.6 86.8 609.3 86.8 609.3 96.6 623.7 96.6 623.7 101.5 609.3 101.5 609.3 112.8 624.6 112.8"></polygon>
                <path d="M657.5,108.1 C657.5,111.3 656.3,113.8 653.8,115.6 C651.3,117.4 648,118.3 643.7,118.3 C639.4,118.3 635.9,117.7 633.1,116.4 L633.1,110.8 C634.8,111.6 636.7,112.2 638.6,112.6 C640.6,113 642.4,113.3 644.1,113.3 C646.6,113.3 648.4,112.9 649.6,112 C650.8,111.1 651.4,109.9 651.4,108.4 C651.4,107.1 650.9,105.9 649.8,105 C648.7,104.1 646.5,103 643.1,101.7 C639.6,100.4 637.2,98.8 635.7,97.1 C634.2,95.4 633.6,93.3 633.6,90.9 C633.6,87.9 634.7,85.5 637,83.8 C639.3,82.1 642.3,81.2 646.1,81.2 C649.8,81.2 653.4,82 657,83.5 L655,88.3 C651.6,87 648.6,86.3 645.9,86.3 C643.9,86.3 642.4,86.7 641.3,87.5 C640.3,88.3 639.7,89.4 639.7,90.8 C639.7,91.7 639.9,92.5 640.3,93.2 C640.7,93.9 641.4,94.5 642.4,95.1 C643.4,95.7 645.1,96.5 647.6,97.4 C650.4,98.5 652.5,99.5 653.8,100.5 C655.1,101.5 656.1,102.5 656.7,103.7 C657.3,104.9 657.5,106.4 657.5,108.1 L657.5,108.1 Z" id="Shape" fill="#FFFFFF"></path>
                <path d="M689.8,108.1 C689.8,111.3 688.6,113.8 686.1,115.6 C683.6,117.4 680.3,118.3 676,118.3 C671.7,118.3 668.2,117.7 665.4,116.4 L665.4,110.8 C667.1,111.6 669,112.2 670.9,112.6 C672.9,113 674.7,113.3 676.4,113.3 C678.9,113.3 680.7,112.9 681.9,112 C683.1,111.1 683.7,109.9 683.7,108.4 C683.7,107.1 683.2,105.9 682.1,105 C681,104.1 678.8,103 675.4,101.7 C671.9,100.4 669.5,98.8 668,97.1 C666.5,95.4 665.9,93.3 665.9,90.9 C665.9,87.9 667,85.5 669.3,83.8 C671.6,82.1 674.6,81.2 678.4,81.2 C682.1,81.2 685.7,82 689.3,83.5 L687.3,88.3 C683.9,87 680.9,86.3 678.2,86.3 C676.2,86.3 674.7,86.7 673.6,87.5 C672.6,88.3 672,89.4 672,90.8 C672,91.7 672.2,92.5 672.6,93.2 C673,93.9 673.7,94.5 674.7,95.1 C675.7,95.7 677.4,96.5 679.9,97.4 C682.7,98.5 684.8,99.5 686.1,100.5 C687.4,101.5 688.4,102.5 689,103.7 C689.6,104.9 689.8,106.4 689.8,108.1 L689.8,108.1 Z" id="Shape" fill="#FFFFFF"></path>
                <g transform="translate(229.000000, 2.000000)" id="Shape" fill="#FFFFFF">
                    <path d="M14.1,6.5 C14.1,8.6 13.4,10.2 11.9,11.3 C10.5,12.4 8.4,13 5.8,13 L3.6,13 L3.6,20.4 L0.2,20.4 L0.2,0.6 L6.2,0.6 C8.8,0.6 10.8,1.1 12.1,2.1 C13.5,3.1 14.1,4.6 14.1,6.5 L14.1,6.5 Z M3.7,10.2 L5.5,10.2 C7.3,10.2 8.5,9.9 9.4,9.3 C10.2,8.7 10.6,7.8 10.6,6.6 C10.6,5.5 10.2,4.6 9.5,4.1 C8.8,3.5 7.6,3.3 6.1,3.3 L3.7,3.3 L3.7,10.2 L3.7,10.2 Z"></path>
                    <path d="M33.2,20.4 L31.1,14.9 L23.1,14.9 L21,20.4 L17.4,20.4 L25.2,0.5 L28.9,0.5 L36.7,20.4 L33.2,20.4 L33.2,20.4 Z M30.2,12.1 L28.2,6.7 C28.1,6.3 27.9,5.8 27.6,5 C27.3,4.2 27.2,3.7 27.1,3.3 C26.8,4.4 26.5,5.6 26,6.9 L24.1,12.1 L30.2,12.1 L30.2,12.1 Z"></path>
                    <path d="M46.6,12.4 L46.6,20.3 L43.2,20.3 L43.2,0.5 L49.1,0.5 C51.8,0.5 53.8,1 55.1,1.9 C56.4,2.9 57,4.3 57,6.2 C57,8.7 55.6,10.4 52.9,11.5 L58.8,20.3 L55,20.3 L50,12.4 L46.6,12.4 L46.6,12.4 Z M46.6,9.8 L49,9.8 C50.6,9.8 51.8,9.5 52.5,9 C53.2,8.4 53.6,7.6 53.6,6.5 C53.6,5.4 53.2,4.6 52.4,4.1 C51.6,3.6 50.5,3.4 48.9,3.4 L46.6,3.4 L46.6,9.8 L46.6,9.8 Z"></path>
                    <polygon points="72.5 20.4 69.1 20.4 69.1 3.4 62.9 3.4 62.9 0.6 78.7 0.6 78.7 3.4 72.5 3.4 72.5 20.4"></polygon>
                    <path d="M102.7,20.4 L98.5,20.4 L88.2,4.6 L88.1,4.6 L88.2,5.5 C88.3,7.2 88.4,8.7 88.4,10.1 L88.4,20.4 L85.3,20.4 L85.3,0.6 L89.5,0.6 L99.8,16.3 L99.9,16.3 C99.9,16.1 99.8,15.3 99.8,14 C99.7,12.7 99.7,11.7 99.7,10.9 L99.7,0.5 L102.8,0.5 L102.8,20.4 L102.7,20.4 Z"></path>
                    <polygon points="123.1 20.4 111.2 20.4 111.2 0.6 123.1 0.6 123.1 3.3 114.7 3.3 114.7 8.7 122.6 8.7 122.6 11.4 114.7 11.4 114.7 17.6 123.1 17.6"></polygon>
                    <path d="M134.1,12.4 L134.1,20.3 L130.7,20.3 L130.7,0.5 L136.6,0.5 C139.3,0.5 141.3,1 142.6,1.9 C143.9,2.9 144.5,4.3 144.5,6.2 C144.5,8.7 143.1,10.4 140.4,11.5 L146.3,20.3 L142.4,20.3 L137.4,12.4 L134.1,12.4 L134.1,12.4 Z M134.1,9.8 L136.5,9.8 C138.1,9.8 139.3,9.5 140,9 C140.7,8.4 141.1,7.6 141.1,6.5 C141.1,5.4 140.7,4.6 139.9,4.1 C139.1,3.6 138,3.4 136.4,3.4 L134.1,3.4 L134.1,9.8 L134.1,9.8 Z"></path>
                    <path d="M165.6,15 C165.6,16.8 164.9,18.1 163.6,19.1 C162.3,20.1 160.4,20.6 158,20.6 C155.6,20.6 153.7,20.3 152.2,19.6 L152.2,16.5 C153.2,16.9 154.2,17.3 155.2,17.5 C156.3,17.7 157.3,17.9 158.2,17.9 C159.6,17.9 160.6,17.7 161.2,17.2 C161.8,16.7 162.2,16.1 162.2,15.2 C162.2,14.5 161.9,13.8 161.3,13.3 C160.7,12.8 159.5,12.2 157.6,11.5 C155.7,10.8 154.3,9.9 153.6,9 C152.8,8.1 152.4,6.9 152.4,5.6 C152.4,3.9 153,2.6 154.3,1.7 C155.5,0.8 157.2,0.3 159.3,0.3 C161.3,0.3 163.3,0.7 165.3,1.5 L164.2,4.1 C162.3,3.4 160.7,3 159.2,3 C158.1,3 157.2,3.2 156.7,3.7 C156.1,4.2 155.8,4.8 155.8,5.5 C155.8,6 155.9,6.5 156.1,6.8 C156.3,7.2 156.7,7.5 157.2,7.8 C157.7,8.1 158.7,8.6 160,9.1 C161.5,9.7 162.7,10.3 163.4,10.8 C164.1,11.3 164.6,11.9 165,12.6 C165.4,13.3 165.6,14.1 165.6,15 L165.6,15 Z"></path>
                    <polygon points="189.3 20.4 185.9 20.4 185.9 11.5 176.2 11.5 176.2 20.4 172.8 20.4 172.8 0.6 176.2 0.6 176.2 8.7 185.9 8.7 185.9 0.6 189.3 0.6"></polygon>
                    <polygon points="197.9 20.4 197.9 0.6 201.3 0.6 201.3 20.4"></polygon>
                    <path d="M223.8,6.5 C223.8,8.6 223.1,10.2 221.6,11.3 C220.2,12.4 218.1,13 215.5,13 L213.3,13 L213.3,20.4 L209.9,20.4 L209.9,0.6 L215.9,0.6 C218.5,0.6 220.5,1.1 221.8,2.1 C223.2,3.1 223.8,4.6 223.8,6.5 L223.8,6.5 Z M213.4,10.2 L215.2,10.2 C217,10.2 218.2,9.9 219.1,9.3 C219.9,8.7 220.3,7.8 220.3,6.6 C220.3,5.5 219.9,4.6 219.2,4.1 C218.5,3.5 217.3,3.3 215.8,3.3 L213.4,3.3 L213.4,10.2 L213.4,10.2 Z"></path>
                    <polygon points="245.8 20.4 242.4 20.4 242.4 0.6 254.2 0.6 254.2 3.3 245.8 3.3 245.8 9.5 253.7 9.5 253.7 12.3 245.8 12.3"></polygon>
                    <path d="M279.9,10.4 C279.9,13.6 279,16.1 277.3,17.9 C275.6,19.7 273.2,20.6 270.1,20.6 C266.9,20.6 264.5,19.7 262.8,17.9 C261.1,16.1 260.3,13.6 260.3,10.3 C260.3,7 261.2,4.5 262.9,2.8 C264.6,1 267,0.2 270.2,0.2 C273.3,0.2 275.7,1.1 277.4,2.9 C279.1,4.7 279.9,7.2 279.9,10.4 L279.9,10.4 Z M263.9,10.4 C263.9,12.8 264.4,14.7 265.5,16 C266.5,17.3 268.1,17.9 270.1,17.9 C272.1,17.9 273.7,17.3 274.7,16 C275.7,14.8 276.3,12.9 276.3,10.4 C276.3,8 275.8,6.1 274.8,4.9 C273.8,3.6 272.2,3 270.2,3 C268.1,3 266.6,3.6 265.5,4.9 C264.4,6.1 263.9,8 263.9,10.4 L263.9,10.4 Z"></path>
                    <path d="M290.9,12.4 L290.9,20.3 L287.5,20.3 L287.5,0.5 L293.4,0.5 C296.1,0.5 298.1,1 299.4,1.9 C300.7,2.9 301.3,4.3 301.3,6.2 C301.3,8.7 299.9,10.4 297.2,11.5 L303.1,20.3 L299.2,20.3 L294.2,12.4 L290.9,12.4 L290.9,12.4 Z M290.9,9.8 L293.3,9.8 C294.9,9.8 296.1,9.5 296.8,9 C297.5,8.4 297.9,7.6 297.9,6.5 C297.9,5.4 297.5,4.6 296.7,4.1 C295.9,3.6 294.8,3.4 293.2,3.4 L290.9,3.4 L290.9,9.8 L290.9,9.8 Z"></path>
                </g>
            </g>
        </g>
    </g>
</svg>