<?xml version="1.0" encoding="utf-8"?>
<!-- Generator: Adobe Illustrator 18.1.0, SVG Export Plug-In . SVG Version: 6.00 Build 0)  -->
<svg version="1.1" id="Layer_1" xmlns="http://www.w3.org/2000/svg" xmlns:xlink="http://www.w3.org/1999/xlink" x="0px" y="0px"
	 viewBox="0 0 841.9 595.3" enable-background="new 0 0 841.9 595.3" xml:space="preserve">
<g>
	<g>
		<g opacity="0.8">
			<g opacity="0.6">
				<linearGradient id="SVGID_1_" gradientUnits="userSpaceOnUse" x1="79.1975" y1="301.356" x2="253.1835" y2="301.356">
					<stop  offset="1.328130e-03" style="stop-color:#6FCBD2"/>
					<stop  offset="1" style="stop-color:#077E9B"/>
				</linearGradient>
				<path fill="url(#SVGID_1_)" d="M80.5,327.4c-0.4,0-0.7-0.1-1-0.4c-0.5-0.5-0.5-1.4,0-1.9c1.2-1.2,29.8-29,43.6-30.2
					c6.8-0.6,15.5,4.7,23.9,9.9c6.8,4.2,13.9,8.6,19.1,9c10.9,1,32.8-6.1,42.2-10.2c11.7-5.1,42.2-27.9,42.5-28.1
					c0.6-0.4,1.4-0.3,1.9,0.3c0.4,0.6,0.3,1.4-0.3,1.9c-1.3,0.9-31.1,23.3-43.1,28.5c-8.6,3.7-31.4,11.4-43.5,10.4
					c-5.8-0.5-12.9-4.9-20.3-9.4c-8-4.9-16.3-10.1-22.3-9.5c-12.9,1.2-41.7,29.2-42,29.5C81.2,327.3,80.9,327.4,80.5,327.4z"/>
			</g>
			<g>
				<linearGradient id="SVGID_2_" gradientUnits="userSpaceOnUse" x1="79.1971" y1="295.7236" x2="253.1837" y2="295.7236">
					<stop  offset="1.328130e-03" style="stop-color:#6FCBD2"/>
					<stop  offset="1" style="stop-color:#077E9B"/>
				</linearGradient>
				<path fill="url(#SVGID_2_)" d="M173,328.1c-2.7,0-5.1-0.2-7.1-0.7c-7.2-1.8-13.9-9.7-20.9-18.1c-7.2-8.5-14.6-17.3-21.7-17.9
					c-0.2,0-0.5,0-0.8,0c-12.4,0-40.8,23.6-41.1,23.8c-0.6,0.5-1.4,0.4-1.9-0.2c-0.5-0.6-0.4-1.4,0.2-1.9c1.2-1,30.8-25.5,43.8-24.4
					c8.3,0.7,16,9.9,23.5,18.9c6.5,7.7,13.1,15.6,19.5,17.2c9.8,2.4,32.6-2.6,41.8-7.9c15-8.7,42.1-52.4,42.4-52.8
					c0.4-0.6,1.2-0.8,1.9-0.4c0.6,0.4,0.8,1.2,0.4,1.9c-1.1,1.8-27.7,44.7-43.3,53.8C202.4,323.4,185.1,328.1,173,328.1z"/>
			</g>
			<g opacity="0.7">
				<linearGradient id="SVGID_3_" gradientUnits="userSpaceOnUse" x1="79.197" y1="290.0946" x2="253.1836" y2="290.0946">
					<stop  offset="1.328130e-03" style="stop-color:#6FCBD2"/>
					<stop  offset="1" style="stop-color:#077E9B"/>
				</linearGradient>
				<path fill="url(#SVGID_3_)" d="M180.8,316.9c-5.9,0-11.3-0.5-15-1.4c-6.2-1.6-12.8-7.7-19.7-14.1c-7.8-7.2-15.9-14.7-22.8-14.7
					c-12.7,0-41.6,28.1-41.9,28.4c-0.5,0.5-1.4,0.5-1.9,0c-0.5-0.5-0.5-1.4,0-1.9c1.2-1.2,29.9-29.2,43.8-29.2
					c7.9,0,16.4,7.8,24.6,15.4c6.4,5.9,13,12,18.6,13.4c9.6,2.5,32.5,1.5,41.9-2.9c14.5-6.7,42-45.6,42.3-46
					c0.4-0.6,1.3-0.8,1.9-0.3c0.6,0.4,0.8,1.3,0.3,1.9c-1.1,1.6-28.2,39.9-43.4,46.9C203.1,315.4,191.2,316.9,180.8,316.9z"/>
			</g>
			<g>
				<linearGradient id="SVGID_4_" gradientUnits="userSpaceOnUse" x1="79.1971" y1="300.28" x2="253.1835" y2="300.28">
					<stop  offset="1.328130e-03" style="stop-color:#6FCBD2"/>
					<stop  offset="1" style="stop-color:#077E9B"/>
				</linearGradient>
				<path fill="url(#SVGID_4_)" d="M168.3,337.2c-0.8,0-1.6-0.1-2.4-0.2c-8.8-1.4-15.6-12.6-22.2-23.5
					c-6.3-10.4-12.9-21.2-20.6-22.2c-9.8-1.4-33.5,16.7-41.8,23.8c-0.6,0.5-1.4,0.4-1.9-0.2c-0.5-0.6-0.4-1.4,0.1-1.9
					c1.3-1.1,30.9-26.2,43.9-24.4c9,1.2,15.8,12.6,22.5,23.5c6.3,10.3,12.8,21,20.4,22.2c11.7,1.9,33.6-15,41.8-21.3
					c13-10,42.3-48.8,42.6-49.2c0.4-0.6,1.3-0.7,1.9-0.3c0.6,0.4,0.7,1.3,0.3,1.9c-1.2,1.6-29.8,39.5-43.1,49.7
					C196.4,325.6,179.8,337.2,168.3,337.2z"/>
			</g>
			<g>
				<linearGradient id="SVGID_5_" gradientUnits="userSpaceOnUse" x1="79.1972" y1="296.8206" x2="253.1836" y2="296.8206">
					<stop  offset="1.328130e-03" style="stop-color:#6FCBD2"/>
					<stop  offset="1" style="stop-color:#077E9B"/>
				</linearGradient>
				<path fill="url(#SVGID_5_)" d="M168.3,347c-0.8,0-1.6-0.1-2.4-0.3c-8.9-2-15.4-16.6-22.2-32.1c-6.4-14.3-12.9-29.2-20.5-30.6
					c-9.6-1.9-33.3,22.9-41.5,32.6c-0.5,0.6-1.3,0.6-1.9,0.2c-0.6-0.5-0.6-1.3-0.2-1.9c0.1-0.1,7.7-9,16.8-17.6
					c12.5-11.7,21.7-17.1,27.3-16c9,1.7,15.6,16.5,22.5,32.2c6.3,14.2,12.8,28.9,20.3,30.6c11.6,2.6,33.3-20.6,41.5-29.2
					c13-13.8,42.3-67,42.6-67.6c0.4-0.7,1.2-0.9,1.8-0.5c0.7,0.4,0.9,1.2,0.5,1.8c-1.2,2.2-29.8,54.1-43,68.1
					C196.5,331,179.9,347,168.3,347z"/>
			</g>
			<g>
				<linearGradient id="SVGID_6_" gradientUnits="userSpaceOnUse" x1="79.1967" y1="310.8185" x2="253.1838" y2="310.8185">
					<stop  offset="1.328130e-03" style="stop-color:#6FCBD2"/>
					<stop  offset="1" style="stop-color:#077E9B"/>
				</linearGradient>
				<path fill="url(#SVGID_6_)" d="M80.5,326.5c-0.5,0-1-0.3-1.2-0.8c-0.3-0.7,0-1.5,0.7-1.8c1.3-0.6,31.8-14.2,43-17.4
					c3-0.9,30-8.5,43.3-7.8c5.5,0.3,12.8,3.2,20.5,6.3c8.1,3.3,16.6,6.6,22.2,6.5c11.2-0.4,41.9-16.1,42.3-16.3
					c0.7-0.3,1.5-0.1,1.8,0.6c0.3,0.7,0.1,1.5-0.6,1.8c-1.3,0.7-31.6,16.1-43.4,16.5c-6.2,0.3-15-3.3-23.4-6.7
					c-7.1-2.9-14.5-5.9-19.6-6.1c-10.4-0.6-31.5,4.6-42.4,7.7c-11,3.2-42.3,17.1-42.6,17.2C80.9,326.5,80.7,326.5,80.5,326.5z"/>
			</g>
			<g>
				<linearGradient id="SVGID_7_" gradientUnits="userSpaceOnUse" x1="79.197" y1="307.6456" x2="253.1832" y2="307.6456">
					<stop  offset="1.328130e-03" style="stop-color:#6FCBD2"/>
					<stop  offset="1" style="stop-color:#077E9B"/>
				</linearGradient>
				<path fill="url(#SVGID_7_)" d="M174.6,327.1c-3.2,0-6.2-0.2-8.6-0.6c-5.9-1-13.1-5.5-20.6-10.3c-7.9-5-16-10.2-22.1-10.6
					c-10.9-0.7-41.8,13.7-42.2,13.9c-0.7,0.3-1.5,0-1.8-0.6c-0.3-0.7,0-1.5,0.6-1.8c1.3-0.6,31.9-14.9,43.5-14.1
					c6.8,0.5,15.2,5.8,23.4,11c7,4.4,14.2,9,19.6,9.9c10.6,1.8,32.7-1.1,42.1-4.6c12.3-4.7,42.1-30.4,42.4-30.7
					c0.6-0.5,1.4-0.4,1.9,0.1c0.5,0.6,0.4,1.4-0.1,1.9c-1.2,1.1-30.4,26.3-43.2,31.1C201.8,324.6,186.4,327.1,174.6,327.1z"/>
			</g>
			<g opacity="0.6">
				<linearGradient id="SVGID_8_" gradientUnits="userSpaceOnUse" x1="79.1967" y1="304.4102" x2="253.1833" y2="304.4102">
					<stop  offset="1.328130e-03" style="stop-color:#6FCBD2"/>
					<stop  offset="1" style="stop-color:#077E9B"/>
				</linearGradient>
				<path fill="url(#SVGID_8_)" d="M182.4,320.6c-6.3,0-12.2-0.4-16.4-1.1c-5.4-0.9-12.1-4.3-19.3-8c-8.4-4.3-17.1-8.7-23.3-8.7
					c-11.2,0-41.9,16.4-42.2,16.5c-0.7,0.3-1.5,0.1-1.8-0.6c-0.4-0.7-0.1-1.5,0.6-1.8c1.3-0.7,31.6-16.8,43.5-16.8
					c6.8,0,15.8,4.6,24.5,9c7,3.5,13.6,6.9,18.5,7.7c10.5,1.7,32.5,1.3,42.2-1.7c12-3.7,42.1-26.5,42.4-26.7
					c0.6-0.5,1.4-0.3,1.9,0.3c0.5,0.6,0.3,1.4-0.3,1.9c-1.2,1-30.7,23.3-43.2,27.2C203.1,319.7,192.3,320.6,182.4,320.6z"/>
			</g>
			<g opacity="0.4">
				<linearGradient id="SVGID_9_" gradientUnits="userSpaceOnUse" x1="79.1966" y1="310.2207" x2="253.1839" y2="310.2207">
					<stop  offset="1.328130e-03" style="stop-color:#6FCBD2"/>
					<stop  offset="1" style="stop-color:#077E9B"/>
				</linearGradient>
				<path fill="url(#SVGID_9_)" d="M168.7,332.2c-0.9,0-1.8-0.1-2.6-0.2c-6.8-0.9-14.5-7.3-22-13.5c-7.2-6-14.7-12.3-20.8-13
					c-10.8-1.2-41.8,13.7-42.1,13.9c-0.7,0.3-1.5,0-1.8-0.6c-0.3-0.7,0-1.5,0.6-1.8c1.3-0.6,32-15.4,43.6-14.1
					c6.9,0.8,14.7,7.3,22.3,13.6c7.1,6,14.5,12.1,20.6,12.9c10.4,1.4,30.8-7.2,42.1-12.4c11.6-5.4,42.3-28.3,42.6-28.5
					c0.6-0.4,1.4-0.3,1.9,0.3c0.4,0.6,0.3,1.4-0.3,1.9c-1.3,0.9-31.2,23.3-43.1,28.8C198.9,324.4,180.2,332.2,168.7,332.2z"/>
			</g>
			<g opacity="0.6">
				<linearGradient id="SVGID_10_" gradientUnits="userSpaceOnUse" x1="79.1965" y1="304.598" x2="253.1841" y2="304.598">
					<stop  offset="1.328130e-03" style="stop-color:#6FCBD2"/>
					<stop  offset="1" style="stop-color:#077E9B"/>
				</linearGradient>
				<path fill="url(#SVGID_10_)" d="M166.6,323.5c-0.2,0-0.3,0-0.4,0c-7.2-0.2-15.2-7-22.9-13.6c-7-5.9-14.1-12-20-12.7
					c-10.8-1.2-41.8,13.3-42.1,13.4c-0.7,0.3-1.5,0-1.8-0.6c-0.3-0.7,0-1.5,0.6-1.8c1.3-0.6,32-15.1,43.6-13.7
					c6.7,0.8,13.8,6.9,21.4,13.3c7.4,6.3,15,12.8,21.3,13c0.1,0,0.2,0,0.4,0c7.3,0,17.6-6.9,26.6-13c5.7-3.8,11-7.4,15.3-9.2
					c10.2-4.1,41.6-12.5,43-12.9c0.7-0.2,1.5,0.2,1.7,1c0.2,0.7-0.2,1.5-1,1.7c-0.3,0.1-32.6,8.7-42.7,12.8
					c-4.1,1.6-9.3,5.2-14.8,8.9C185.4,316.4,174.8,323.5,166.6,323.5z"/>
			</g>
			<g opacity="0.4">
				<linearGradient id="SVGID_11_" gradientUnits="userSpaceOnUse" x1="79.1971" y1="307.1106" x2="253.1834" y2="307.1106">
					<stop  offset="1.328130e-03" style="stop-color:#6FCBD2"/>
					<stop  offset="1" style="stop-color:#077E9B"/>
				</linearGradient>
				<path fill="url(#SVGID_11_)" d="M80.5,334c-0.3,0-0.6-0.1-0.8-0.3c-0.6-0.4-0.7-1.3-0.3-1.9c1.1-1.5,28.1-37.3,43.7-40.1
					c7-1.2,16.5,3.8,25.6,8.8c6.6,3.6,12.9,7,17.6,7.6c10.1,1.4,31.9-0.5,42.2-3.6c11.7-3.6,42.2-23.8,42.5-24
					c0.6-0.4,1.5-0.2,1.9,0.4c0.4,0.6,0.2,1.5-0.4,1.9c-1.3,0.8-31.1,20.7-43.2,24.4c-10.7,3.3-33,5.2-43.4,3.7
					c-5.2-0.7-11.7-4.2-18.5-7.9c-8.7-4.7-17.8-9.6-23.9-8.5c-14.5,2.6-41.7,38.7-42,39C81.4,333.8,81,334,80.5,334z"/>
			</g>
			<g>
				<linearGradient id="SVGID_12_" gradientUnits="userSpaceOnUse" x1="79.1972" y1="307.1099" x2="253.1838" y2="307.1099">
					<stop  offset="1.328130e-03" style="stop-color:#6FCBD2"/>
					<stop  offset="1" style="stop-color:#077E9B"/>
				</linearGradient>
				<path fill="url(#SVGID_12_)" d="M80.5,334c-0.3,0-0.5-0.1-0.8-0.3c-0.6-0.4-0.7-1.3-0.3-1.9c1.1-1.6,27.9-38.6,43.6-42.2
					c7-1.6,16.9,2.8,26.6,7c6.3,2.8,12.3,5.4,16.7,6c10.8,1.4,32.5,1.1,42.3-1.3c11.5-2.8,42.2-20.8,42.5-21
					c0.6-0.4,1.5-0.2,1.8,0.5c0.4,0.6,0.2,1.5-0.5,1.8c-1.3,0.7-31.3,18.3-43.2,21.2c-10.4,2.6-32.2,2.8-43.3,1.4
					c-4.7-0.6-10.9-3.3-17.4-6.2c-8.8-3.9-18.8-8.3-24.9-6.9c-14.8,3.3-41.8,40.8-42,41.1C81.4,333.8,81,334,80.5,334z"/>
			</g>
			<g>
				<linearGradient id="SVGID_13_" gradientUnits="userSpaceOnUse" x1="79.1969" y1="307.1096" x2="253.1835" y2="307.1096">
					<stop  offset="1.328130e-03" style="stop-color:#6FCBD2"/>
					<stop  offset="1" style="stop-color:#077E9B"/>
				</linearGradient>
				<path fill="url(#SVGID_13_)" d="M80.5,334c-0.3,0-0.6-0.1-0.8-0.3c-0.6-0.4-0.7-1.3-0.3-1.9c1.1-1.5,28-38,43.7-40.1
					c7.1-1,15.9,5,24.4,10.9c6.7,4.6,13.6,9.3,18.8,9.9c11,1.2,33.2-6.4,42.2-9.7c11.2-4.1,42.3-22.2,42.6-22.3
					c0.6-0.4,1.5-0.2,1.8,0.5c0.4,0.6,0.2,1.5-0.5,1.8c-1.3,0.7-31.6,18.3-43,22.5c-9.2,3.4-31.9,11.2-43.4,9.9
					c-5.9-0.6-12.7-5.4-20-10.3c-8.1-5.5-16.4-11.2-22.5-10.4c-14.6,2-41.6,38.6-41.9,39C81.4,333.8,81,334,80.5,334z"/>
			</g>
		</g>
		<rect x="76.1" y="232" fill="#273F57" width="6.3" height="119.7"/>
		<rect x="250.2" y="232" fill="#273F57" width="6.3" height="119.7"/>
	</g>
	<path fill="#273F57" d="M311.5,287.7v14.4h-6.2V266H316c4.9,0,8.6,0.9,10.9,2.6c2.4,1.7,3.5,4.4,3.5,7.9c0,4.5-2.5,7.7-7.4,9.6
		l10.8,16h-7.1l-9.1-14.4H311.5z M311.5,282.8h4.3c2.9,0,5-0.5,6.3-1.5s2-2.5,2-4.5c0-2-0.7-3.5-2.1-4.4c-1.4-0.9-3.5-1.3-6.4-1.3
		h-4.1V282.8z"/>
	<path fill="#273F57" d="M363.8,302.1h-21.6V266h21.6v5h-15.3v9.8h14.4v4.9h-14.4v11.3h15.3V302.1z"/>
	<path fill="#273F57" d="M396.7,292.3c0,3.2-1.2,5.7-3.7,7.5c-2.5,1.8-5.8,2.7-10.1,2.7s-7.8-0.6-10.6-1.9v-5.6
		c1.7,0.8,3.6,1.4,5.5,1.8c2,0.4,3.8,0.7,5.5,0.7c2.5,0,4.3-0.4,5.5-1.3s1.8-2.1,1.8-3.6c0-1.3-0.5-2.5-1.6-3.4
		c-1.1-0.9-3.3-2-6.7-3.3c-3.5-1.3-5.9-2.9-7.4-4.6s-2.1-3.8-2.1-6.2c0-3,1.1-5.4,3.4-7.1c2.3-1.7,5.3-2.6,9.1-2.6
		c3.7,0,7.3,0.8,10.9,2.3l-2,4.8c-3.4-1.3-6.4-2-9.1-2c-2,0-3.5,0.4-4.6,1.2c-1,0.8-1.6,1.9-1.6,3.3c0,0.9,0.2,1.7,0.6,2.4
		c0.4,0.7,1.1,1.3,2.1,1.9c1,0.6,2.7,1.4,5.2,2.3c2.8,1.1,4.9,2.1,6.2,3.1c1.3,1,2.3,2,2.9,3.2S396.7,290.6,396.7,292.3z"/>
	<path fill="#273F57" d="M406.5,302.1V266h6.2v36.1H406.5z"/>
	<path fill="#273F57" d="M424.9,302.1V266h6.2v31h16.1v5.1H424.9z"/>
	<path fill="#273F57" d="M456.1,302.1V266h6.2v36.1H456.1z"/>
	<path fill="#273F57" d="M496.1,302.1h-21.6V266h21.6v5h-15.3v9.8h14.4v4.9h-14.4v11.3h15.3V302.1z"/>
	<path fill="#273F57" d="M538.2,302.1h-7.6l-18.8-28.7h-0.2l0.1,1.6c0.2,3.1,0.4,5.9,0.4,8.4v18.7h-5.7V266h7.6l18.7,28.6h0.2
		c0-0.4-0.1-1.8-0.2-4.1c-0.1-2.4-0.2-4.2-0.2-5.6V266h5.7V302.1z"/>
	<path fill="#273F57" d="M566.8,270.6c-3.6,0-6.4,1.2-8.5,3.6s-3.1,5.7-3.1,9.9c0,4.4,1,7.8,3,10c2,2.3,4.8,3.4,8.6,3.4
		c1.6,0,3.2-0.2,4.7-0.5c1.5-0.3,3.1-0.7,4.7-1.2v5.1c-3,1.1-6.4,1.6-10.2,1.6c-5.6,0-9.9-1.6-12.9-4.8c-3-3.2-4.5-7.8-4.5-13.7
		c0-3.7,0.7-7,2.2-9.8c1.5-2.8,3.6-5,6.3-6.5c2.7-1.5,6-2.2,9.7-2.2c3.9,0,7.5,0.8,10.8,2.3l-2.2,4.9c-1.3-0.6-2.6-1.1-4.1-1.5
		S568.4,270.6,566.8,270.6z"/>
	<path fill="#273F57" d="M608.2,302.1h-21.6V266h21.6v5h-15.3v9.8h14.4v4.9h-14.4v11.3h15.3V302.1z"/>
	<path fill="#273F57" d="M305.3,340.3c0-2.2,0.6-4,1.7-5.6c1.1-1.6,3.1-3.2,6-4.8c-1.7-1.8-2.8-3.4-3.4-4.6
		c-0.6-1.3-0.9-2.6-0.9-3.9c0-2.5,0.9-4.5,2.8-5.9c1.9-1.4,4.4-2.2,7.6-2.2c3.1,0,5.5,0.7,7.3,2.1c1.8,1.4,2.6,3.3,2.6,5.7
		c0,1.9-0.6,3.6-1.8,5.1c-1.2,1.5-3.1,3.1-5.9,4.6l9,8.2c1.4-1.8,2.6-4.3,3.5-7.7h6.3c-1.2,4.7-3.2,8.5-5.8,11.4l7.9,7.2h-7.9
		l-3.9-3.6c-1.8,1.3-3.7,2.4-5.7,3c-2,0.7-4.2,1-6.7,1c-4,0-7.1-0.9-9.4-2.7C306.4,345.9,305.3,343.4,305.3,340.3z M318.4,345.4
		c3.2,0,5.9-0.9,8.2-2.6l-10-9.3c-1.8,1.1-3.1,2.2-3.8,3.1c-0.7,1-1,2.1-1,3.3c0,1.6,0.6,2.9,1.8,3.9
		C314.8,344.9,316.4,345.4,318.4,345.4z M314.5,321.6c0,1,0.3,2,0.9,2.9s1.4,1.9,2.4,2.9c2-1.1,3.3-2,4.1-2.9
		c0.8-0.9,1.2-1.9,1.2-3.1c0-1.1-0.4-1.9-1.1-2.6c-0.8-0.6-1.8-1-3-1c-1.4,0-2.5,0.3-3.3,1S314.5,320.5,314.5,321.6z"/>
	<path fill="#273F57" d="M375.6,324.7c0,3.8-1.3,6.6-3.9,8.7s-6.3,3-11.1,3h-4v13.5h-6.2v-36.1h11c4.8,0,8.3,0.9,10.7,2.8
		C374.4,318.4,375.6,321.1,375.6,324.7z M356.6,331.4h3.3c3.2,0,5.5-0.5,7-1.6s2.2-2.7,2.2-4.9c0-2.1-0.7-3.6-2-4.6
		c-1.3-1-3.4-1.5-6.3-1.5h-4.3V331.4z"/>
	<path fill="#273F57" d="M391.1,335.5v14.4h-6.2v-36.1h10.8c4.9,0,8.6,0.9,10.9,2.6c2.4,1.7,3.5,4.4,3.5,7.9c0,4.5-2.5,7.7-7.4,9.6
		l10.8,16h-7.1l-9.1-14.4H391.1z M391.1,330.6h4.3c2.9,0,5-0.5,6.3-1.5s2-2.5,2-4.5c0-2-0.7-3.5-2.1-4.4c-1.4-0.9-3.5-1.3-6.4-1.3
		h-4.1V330.6z"/>
	<path fill="#273F57" d="M443.4,349.9h-21.6v-36.1h21.6v5h-15.3v9.8h14.4v4.9h-14.4v11.3h15.3V349.9z"/>
	<path fill="#273F57" d="M479,324.7c0,3.8-1.3,6.6-3.9,8.7s-6.3,3-11.1,3h-4v13.5h-6.2v-36.1h11c4.8,0,8.3,0.9,10.7,2.8
		C477.8,318.4,479,321.1,479,324.7z M460,331.4h3.3c3.2,0,5.5-0.5,7-1.6s2.2-2.7,2.2-4.9c0-2.1-0.7-3.6-2-4.6
		c-1.3-1-3.4-1.5-6.3-1.5H460V331.4z"/>
	<path fill="#273F57" d="M510.1,349.9l-3.8-10h-14.6l-3.7,10h-6.6l14.3-36.2h6.8l14.3,36.2H510.1z M504.6,334.8l-3.6-9.8
		c-0.3-0.7-0.6-1.7-1.1-3.1c-0.5-1.4-0.8-2.5-1-3.1c-0.5,2-1.2,4.2-2.1,6.6l-3.4,9.4H504.6z"/>
	<path fill="#273F57" d="M531.1,335.5v14.4h-6.2v-36.1h10.8c4.9,0,8.6,0.9,10.9,2.6c2.4,1.7,3.5,4.4,3.5,7.9c0,4.5-2.5,7.7-7.4,9.6
		l10.8,16h-7.1l-9.1-14.4H531.1z M531.1,330.6h4.3c2.9,0,5-0.5,6.3-1.5s2-2.5,2-4.5c0-2-0.7-3.5-2.1-4.4c-1.4-0.9-3.5-1.3-6.4-1.3
		h-4.1V330.6z"/>
	<path fill="#273F57" d="M583.3,349.9h-21.6v-36.1h21.6v5H568v9.8h14.4v4.9H568v11.3h15.3V349.9z"/>
	<path fill="#273F57" d="M624.7,331.5c0,6-1.7,10.5-5.2,13.6c-3.5,3.1-8.5,4.7-15.1,4.7h-10.7v-36.1h11.8c6.1,0,10.8,1.5,14.2,4.6
		C623,321.5,624.7,325.9,624.7,331.5z M618.1,331.7c0-8.6-4.3-12.9-12.8-12.9h-5.4v26.2h4.4C613.5,344.9,618.1,340.5,618.1,331.7z"
		/>
	<path fill="#273F57" d="M666.8,349.9h-7.6l-18.8-28.7h-0.2l0.1,1.6c0.2,3.1,0.4,5.9,0.4,8.4v18.7H635v-36.1h7.6l18.7,28.6h0.2
		c0-0.4-0.1-1.8-0.2-4.1c-0.1-2.4-0.2-4.2-0.2-5.6v-18.9h5.7V349.9z"/>
	<path fill="#273F57" d="M700.6,349.9H679v-36.1h21.6v5h-15.3v9.8h14.4v4.9h-14.4v11.3h15.3V349.9z"/>
	<path fill="#273F57" d="M733.5,340.1c0,3.2-1.2,5.7-3.7,7.5c-2.5,1.8-5.8,2.7-10.1,2.7s-7.8-0.6-10.6-1.9v-5.6
		c1.7,0.8,3.6,1.4,5.5,1.8c2,0.4,3.8,0.7,5.5,0.7c2.5,0,4.3-0.4,5.5-1.3s1.8-2.1,1.8-3.6c0-1.3-0.5-2.5-1.6-3.4
		c-1.1-0.9-3.3-2-6.7-3.3c-3.5-1.3-5.9-2.9-7.4-4.6s-2.1-3.8-2.1-6.2c0-3,1.1-5.4,3.4-7.1c2.3-1.7,5.3-2.6,9.1-2.6
		c3.7,0,7.3,0.8,10.9,2.3l-2,4.8c-3.4-1.3-6.4-2-9.1-2c-2,0-3.5,0.4-4.6,1.2c-1,0.8-1.6,1.9-1.6,3.3c0,0.9,0.2,1.7,0.6,2.4
		c0.4,0.7,1.1,1.3,2.1,1.9c1,0.6,2.7,1.4,5.2,2.3c2.8,1.1,4.9,2.1,6.2,3.1c1.3,1,2.3,2,2.9,3.2S733.5,338.4,733.5,340.1z"/>
	<path fill="#273F57" d="M765.8,340.1c0,3.2-1.2,5.7-3.7,7.5c-2.5,1.8-5.8,2.7-10.1,2.7s-7.8-0.6-10.6-1.9v-5.6
		c1.7,0.8,3.6,1.4,5.5,1.8c2,0.4,3.8,0.7,5.5,0.7c2.5,0,4.3-0.4,5.5-1.3s1.8-2.1,1.8-3.6c0-1.3-0.5-2.5-1.6-3.4
		c-1.1-0.9-3.3-2-6.7-3.3c-3.5-1.3-5.9-2.9-7.4-4.6s-2.1-3.8-2.1-6.2c0-3,1.1-5.4,3.4-7.1c2.3-1.7,5.3-2.6,9.1-2.6
		c3.7,0,7.3,0.8,10.9,2.3l-2,4.8c-3.4-1.3-6.4-2-9.1-2c-2,0-3.5,0.4-4.6,1.2c-1,0.8-1.6,1.9-1.6,3.3c0,0.9,0.2,1.7,0.6,2.4
		c0.4,0.7,1.1,1.3,2.1,1.9c1,0.6,2.7,1.4,5.2,2.3c2.8,1.1,4.9,2.1,6.2,3.1c1.3,1,2.3,2,2.9,3.2S765.8,338.4,765.8,340.1z"/>
	<g>
		<path fill="#273F57" d="M319.1,240.5c0,2.1-0.7,3.7-2.2,4.8c-1.4,1.1-3.5,1.7-6.1,1.7h-2.2v7.4h-3.4v-19.8h6
			c2.6,0,4.6,0.5,5.9,1.5C318.5,237.1,319.1,238.6,319.1,240.5z M308.7,244.2h1.8c1.8,0,3-0.3,3.9-0.9c0.8-0.6,1.2-1.5,1.2-2.7
			c0-1.1-0.4-2-1.1-2.5c-0.7-0.6-1.9-0.8-3.4-0.8h-2.4V244.2z"/>
		<path fill="#273F57" d="M338.2,254.4l-2.1-5.5h-8l-2.1,5.5h-3.6l7.8-19.9h3.7l7.8,19.9H338.2z M335.2,246.1l-2-5.4
			c-0.1-0.4-0.3-0.9-0.6-1.7c-0.3-0.8-0.4-1.3-0.5-1.7c-0.3,1.1-0.6,2.3-1.1,3.6l-1.9,5.2H335.2z"/>
		<path fill="#273F57" d="M351.6,246.4v7.9h-3.4v-19.8h5.9c2.7,0,4.7,0.5,6,1.4c1.3,1,1.9,2.4,1.9,4.3c0,2.5-1.4,4.2-4.1,5.3
			l5.9,8.8H360l-5-7.9H351.6z M351.6,243.8h2.4c1.6,0,2.8-0.3,3.5-0.8c0.7-0.6,1.1-1.4,1.1-2.5c0-1.1-0.4-1.9-1.2-2.4
			c-0.8-0.5-1.9-0.7-3.5-0.7h-2.3V243.8z"/>
		<path fill="#273F57" d="M377.5,254.4h-3.4v-17h-6.2v-2.8h15.8v2.8h-6.2V254.4z"/>
		<path fill="#273F57" d="M407.7,254.4h-4.2l-10.3-15.8h-0.1l0.1,0.9c0.1,1.7,0.2,3.2,0.2,4.6v10.3h-3.1v-19.8h4.2l10.3,15.7h0.1
			c0-0.2-0.1-1-0.1-2.3c-0.1-1.3-0.1-2.3-0.1-3.1v-10.4h3.1V254.4z"/>
		<path fill="#273F57" d="M428.1,254.4h-11.9v-19.8h11.9v2.7h-8.4v5.4h7.9v2.7h-7.9v6.2h8.4V254.4z"/>
		<path fill="#273F57" d="M439.1,246.4v7.9h-3.4v-19.8h5.9c2.7,0,4.7,0.5,6,1.4c1.3,1,1.9,2.4,1.9,4.3c0,2.5-1.4,4.2-4.1,5.3
			l5.9,8.8h-3.9l-5-7.9H439.1z M439.1,243.8h2.4c1.6,0,2.8-0.3,3.5-0.8c0.7-0.6,1.1-1.4,1.1-2.5c0-1.1-0.4-1.9-1.2-2.4
			c-0.8-0.5-1.9-0.7-3.5-0.7h-2.3V243.8z"/>
		<path fill="#273F57" d="M470.6,249c0,1.8-0.7,3.1-2,4.1c-1.3,1-3.2,1.5-5.6,1.5s-4.3-0.3-5.8-1v-3.1c1,0.4,2,0.8,3,1
			c1.1,0.2,2.1,0.4,3,0.4c1.4,0,2.4-0.2,3-0.7c0.6-0.5,1-1.1,1-2c0-0.7-0.3-1.4-0.9-1.9c-0.6-0.5-1.8-1.1-3.7-1.8
			c-1.9-0.7-3.3-1.6-4-2.5c-0.8-0.9-1.2-2.1-1.2-3.4c0-1.7,0.6-3,1.9-3.9c1.2-0.9,2.9-1.4,5-1.4c2,0,4,0.4,6,1.2l-1.1,2.6
			c-1.9-0.7-3.5-1.1-5-1.1c-1.1,0-2,0.2-2.5,0.7c-0.6,0.5-0.9,1.1-0.9,1.8c0,0.5,0.1,1,0.3,1.3c0.2,0.4,0.6,0.7,1.1,1
			c0.5,0.3,1.5,0.8,2.8,1.3c1.5,0.6,2.7,1.2,3.4,1.7c0.7,0.5,1.2,1.1,1.6,1.8C470.4,247.3,470.6,248.1,470.6,249z"/>
		<path fill="#273F57" d="M494.3,254.4h-3.4v-8.9h-9.7v8.9h-3.4v-19.8h3.4v8.1h9.7v-8.1h3.4V254.4z"/>
		<path fill="#273F57" d="M502.9,254.4v-19.8h3.4v19.8H502.9z"/>
		<path fill="#273F57" d="M528.8,240.5c0,2.1-0.7,3.7-2.2,4.8c-1.4,1.1-3.5,1.7-6.1,1.7h-2.2v7.4h-3.4v-19.8h6
			c2.6,0,4.6,0.5,5.9,1.5C528.2,237.1,528.8,238.6,528.8,240.5z M518.4,244.2h1.8c1.8,0,3-0.3,3.9-0.9c0.8-0.6,1.2-1.5,1.2-2.7
			c0-1.1-0.4-2-1.1-2.5c-0.7-0.6-1.9-0.8-3.4-0.8h-2.4V244.2z"/>
		<path fill="#273F57" d="M550.8,254.4h-3.4v-19.8h11.8v2.7h-8.4v6.2h7.9v2.8h-7.9V254.4z"/>
		<path fill="#273F57" d="M584.9,244.4c0,3.2-0.9,5.7-2.6,7.5c-1.7,1.8-4.1,2.7-7.2,2.7c-3.2,0-5.6-0.9-7.3-2.7
			c-1.7-1.8-2.5-4.3-2.5-7.6c0-3.3,0.9-5.8,2.6-7.5c1.7-1.8,4.1-2.6,7.3-2.6c3.1,0,5.5,0.9,7.2,2.7
			C584.1,238.7,584.9,241.2,584.9,244.4z M568.9,244.4c0,2.4,0.5,4.3,1.6,5.6c1,1.3,2.6,1.9,4.6,1.9c2,0,3.6-0.6,4.6-1.9
			c1-1.2,1.6-3.1,1.6-5.6c0-2.4-0.5-4.3-1.5-5.5c-1-1.3-2.6-1.9-4.6-1.9c-2.1,0-3.6,0.6-4.7,1.9C569.4,240.1,568.9,242,568.9,244.4z
			"/>
		<path fill="#273F57" d="M595.9,246.4v7.9h-3.4v-19.8h5.9c2.7,0,4.7,0.5,6,1.4c1.3,1,1.9,2.4,1.9,4.3c0,2.5-1.4,4.2-4.1,5.3
			l5.9,8.8h-3.9l-5-7.9H595.9z M595.9,243.8h2.4c1.6,0,2.8-0.3,3.5-0.8c0.7-0.6,1.1-1.4,1.1-2.5c0-1.1-0.4-1.9-1.2-2.4
			c-0.8-0.5-1.9-0.7-3.5-0.7h-2.3V243.8z"/>
	</g>
</g>
</svg>
